<svg width="506" height="479" viewBox="0 0 506 479" fill="none" xmlns="http://www.w3.org/2000/svg">
<path d="M311.383 114.504C308.347 112.911 305.509 110.027 302.868 105.853C300.124 101.414 298.735 96.2704 298.872 91.0537C298.872 85.5591 300.337 81.4343 303.266 78.6795C306.196 75.9246 310.499 73.8375 316.175 72.4184L336.929 67.3981C345.808 65.1213 350.244 60.8638 350.236 54.6254C350.236 51.2558 348.597 48.3264 345.319 45.8371C342.04 43.3479 336.405 42.107 328.413 42.1146C321.485 42.0688 314.586 43.0079 307.922 44.9037C302.5 46.3538 297.305 48.549 292.485 51.4266C289.444 49.1004 286.832 46.2612 284.767 43.0367C282.562 39.4855 281.45 35.3645 281.568 31.1861C281.512 26.8299 282.928 22.5823 285.587 19.1307C288.533 15.4496 292.32 12.5294 296.629 10.6156C301.965 8.20827 307.608 6.54953 313.398 5.68638C320.485 4.5791 327.65 4.04613 334.822 4.09264C355.746 4.06229 371.589 8.6955 382.351 17.9923C393.112 27.2891 398.478 39.4888 398.448 54.5913C398.448 82.9826 378.397 101.17 338.295 109.154L311.383 114.504ZM302.594 149.373C302.594 142.103 304.871 136.115 309.425 131.409C313.978 126.704 320.236 124.351 328.197 124.351C336.173 124.351 342.427 126.704 346.958 131.409C351.489 136.115 353.765 142.103 353.788 149.373C353.788 156.659 351.511 162.647 346.958 167.337C342.404 172.027 336.151 174.38 328.197 174.395C320.205 174.395 313.948 172.042 309.425 167.337C304.902 162.631 302.625 156.643 302.594 149.373Z" fill="#263238"/>
<path d="M328.157 174.961C320.052 174.961 313.597 172.525 308.975 167.732C304.353 162.94 302.031 156.77 302.031 149.37C302.031 141.971 304.365 135.801 308.975 131.008C313.586 126.215 320.052 123.779 328.157 123.779C336.263 123.779 342.718 126.215 347.328 131.008C351.939 135.801 354.272 141.982 354.272 149.37C354.272 156.758 351.939 162.951 347.328 167.732C342.718 172.513 336.263 174.961 328.157 174.961ZM328.157 124.872C320.371 124.872 314.189 127.149 309.795 131.702C305.401 136.256 303.17 142.187 303.17 149.268C303.17 156.348 305.446 162.268 309.795 166.844C314.144 171.421 320.371 173.675 328.157 173.675C335.944 173.675 342.114 171.398 346.508 166.844C350.903 162.291 353.134 156.36 353.134 149.268C353.134 142.176 350.914 136.381 346.508 131.828C342.103 127.274 335.944 124.918 328.157 124.918V124.872ZM311.389 115.025C311.294 115.024 311.2 115.001 311.116 114.957C308.031 113.329 305.093 110.403 302.384 106.112C299.603 101.585 298.188 96.351 298.309 91.0393C298.309 85.4044 299.845 81.1013 302.862 78.2439C305.879 75.3866 310.285 73.292 316.033 71.8576L336.821 66.8373C345.472 64.5606 349.685 60.5876 349.685 54.6225C349.685 51.4578 348.114 48.646 344.994 46.2895C341.875 43.9331 336.251 42.6809 328.431 42.6809C321.557 42.6392 314.712 43.5705 308.099 45.4471C302.731 46.8889 297.587 49.0607 292.81 51.9018C292.712 51.9659 292.597 52.0001 292.48 52.0001C292.363 52.0001 292.248 51.9659 292.15 51.9018C289.064 49.5319 286.411 46.6474 284.306 43.3753C282.047 39.7229 280.911 35.4872 281.039 31.1946C280.967 26.6988 282.415 22.3104 285.149 18.7407C288.14 14.9793 291.989 11.9892 296.373 10.0206C301.757 7.593 307.449 5.919 313.29 5.04592C320.407 3.93525 327.602 3.39848 334.806 3.4408C355.786 3.4408 371.895 8.18785 382.698 17.5567C393.502 26.9256 398.989 39.4023 398.989 54.5883C398.989 83.1504 378.6 101.695 338.38 109.709L311.491 115.025H311.389ZM328.465 41.4969C336.536 41.4969 342.342 42.7833 345.712 45.3333C349.081 47.8833 350.857 51.0252 350.857 54.577C350.857 61.043 346.247 65.5282 337.128 67.896L316.329 73.0074C310.774 74.3962 306.505 76.4225 303.67 79.1205C300.836 81.8184 299.458 85.7686 299.458 91.0849C299.335 96.1838 300.691 101.209 303.363 105.554C305.902 109.538 308.634 112.384 311.491 113.909L338.175 108.627C377.78 100.738 397.862 82.5698 397.862 54.6225C397.862 39.8235 392.511 27.6087 381.924 18.4447C371.337 9.2807 355.479 4.61333 334.783 4.61333C327.64 4.56715 320.506 5.10014 313.449 6.20707C307.712 7.06162 302.119 8.70107 296.829 11.0793C292.605 12.9608 288.893 15.8258 286.002 19.4351C283.437 22.8112 282.089 26.9555 282.177 31.1946C282.062 35.2598 283.143 39.2695 285.285 42.7264C287.248 45.7704 289.707 48.4639 292.56 50.6951C297.336 47.905 302.462 45.7613 307.803 44.3201C314.509 42.426 321.45 41.4908 328.419 41.5425L328.465 41.4969Z" fill="#263238"/>
<path d="M217.386 295.665L219.64 477.965H308.811L301.479 297.919L217.386 295.665Z" fill="#263238"/>
<path d="M308.811 478.534H219.64C219.489 478.534 219.344 478.475 219.237 478.368C219.131 478.261 219.071 478.116 219.071 477.965L216.794 295.665C216.799 295.512 216.86 295.366 216.965 295.255C217.02 295.201 217.086 295.158 217.159 295.131C217.231 295.103 217.308 295.091 217.386 295.096L301.48 297.372C301.624 297.378 301.761 297.437 301.864 297.538C301.967 297.639 302.029 297.775 302.037 297.919L309.38 477.897C309.385 477.973 309.373 478.049 309.345 478.119C309.318 478.19 309.275 478.254 309.221 478.307C309.174 478.373 309.112 478.427 309.041 478.467C308.971 478.506 308.892 478.529 308.811 478.534ZM220.198 477.396H308.219L300.933 298.477L217.955 296.2L220.198 477.396Z" fill="#263238"/>
<path d="M217.386 230.539L219.64 412.839H308.811L301.479 232.793L217.386 230.539Z" fill="white"/>
<path d="M308.811 413.407H219.64C219.489 413.407 219.344 413.347 219.237 413.24C219.131 413.133 219.071 412.989 219.071 412.838L216.794 230.548C216.794 230.395 216.856 230.247 216.965 230.139C217.018 230.08 217.083 230.035 217.156 230.005C217.229 229.976 217.307 229.963 217.386 229.968L301.479 232.245C301.624 232.245 301.762 232.3 301.866 232.4C301.97 232.5 302.031 232.636 302.037 232.78L309.369 412.826C309.373 412.904 309.362 412.981 309.334 413.054C309.307 413.127 309.264 413.193 309.209 413.247C309.102 413.35 308.959 413.407 308.811 413.407ZM220.198 412.268H308.219L300.933 233.349L217.955 231.072L220.198 412.268Z" fill="#263238"/>
<path d="M248.407 250.199L257.696 265.681L241.451 382.524L265.95 407.034L281.944 376.343L263.627 266.455L272.917 253.819L262.603 237.301L248.407 250.199Z" fill="#263238"/>
<path d="M265.947 407.6C265.872 407.601 265.798 407.586 265.73 407.557C265.661 407.527 265.599 407.484 265.549 407.429L241.039 382.931C240.977 382.867 240.931 382.789 240.903 382.704C240.876 382.62 240.867 382.53 240.879 382.441L257.124 265.791L247.949 250.492C247.878 250.379 247.849 250.246 247.868 250.114C247.887 249.983 247.952 249.862 248.051 249.774L262.236 236.877C262.3 236.823 262.375 236.784 262.455 236.76C262.535 236.737 262.62 236.73 262.703 236.74C262.784 236.751 262.862 236.781 262.931 236.826C263 236.871 263.058 236.931 263.101 237.002L273.415 253.508C273.479 253.602 273.513 253.713 273.513 253.827C273.513 253.941 273.479 254.052 273.415 254.146L264.308 266.588L282.579 376.237C282.6 376.362 282.58 376.49 282.522 376.602L266.584 407.338C266.542 407.417 266.482 407.485 266.409 407.536C266.336 407.588 266.252 407.621 266.163 407.634L265.947 407.6ZM242.041 382.328L265.788 406.074L281.338 376.237L263.055 266.543C263.032 266.391 263.069 266.236 263.158 266.11L272.265 253.782L262.509 238.186L249.156 250.309L258.263 265.382C258.328 265.495 258.356 265.627 258.342 265.757L242.041 382.328Z" fill="#263238"/>
<path d="M257.694 265.678L257.341 268.24L267.7 260.908L272.914 253.816L267.94 245.848L252.4 256.844L257.694 265.678Z" fill="#289476"/>
<path d="M257.341 268.809C257.236 268.807 257.133 268.775 257.045 268.718C256.95 268.662 256.874 268.579 256.825 268.48C256.777 268.381 256.758 268.27 256.772 268.161L257.102 265.793L251.911 257.141C251.832 257.018 251.805 256.87 251.835 256.727C251.865 256.585 251.949 256.46 252.07 256.378L267.609 245.393C267.738 245.302 267.897 245.265 268.053 245.29C268.128 245.307 268.2 245.339 268.262 245.384C268.325 245.429 268.378 245.486 268.417 245.552L273.392 253.521C273.456 253.615 273.49 253.726 273.49 253.84C273.49 253.953 273.456 254.064 273.392 254.158L268.19 261.251C268.15 261.298 268.104 261.34 268.053 261.376L257.694 268.707C257.59 268.777 257.466 268.813 257.341 268.809ZM253.151 257.05L258.183 265.428C258.248 265.542 258.276 265.674 258.263 265.804L258.081 267.056L267.302 260.545L272.231 253.828L267.78 246.713L253.151 257.05Z" fill="#263238"/>
<path d="M252.319 304.348L268.086 293.192L265.866 279.873L254.608 287.83L252.319 304.348Z" fill="#289476"/>
<path d="M252.32 304.862C252.215 304.864 252.113 304.836 252.024 304.782C251.93 304.724 251.855 304.641 251.806 304.543C251.758 304.444 251.739 304.333 251.751 304.224L254.027 287.706C254.038 287.629 254.065 287.554 254.106 287.488C254.148 287.421 254.202 287.364 254.266 287.319L265.514 279.35C265.592 279.295 265.684 279.26 265.78 279.25C265.875 279.24 265.972 279.255 266.06 279.294C266.149 279.332 266.226 279.391 266.286 279.467C266.345 279.542 266.385 279.631 266.402 279.726L268.622 293.045C268.638 293.15 268.626 293.258 268.586 293.356C268.546 293.454 268.479 293.54 268.394 293.603L252.65 304.862C252.542 304.893 252.428 304.893 252.32 304.862ZM255.143 288.116L253.06 303.074L267.46 292.829L265.457 280.762L255.143 288.116Z" fill="#263238"/>
<path d="M266.401 406.155L278.685 382.579L256.907 397.993L265.627 406.713L266.401 406.155Z" fill="#289476"/>
<path d="M265.628 407.317C265.474 407.317 265.326 407.255 265.218 407.146L256.509 398.426C256.448 398.368 256.401 398.297 256.371 398.218C256.342 398.139 256.331 398.055 256.338 397.971C256.346 397.889 256.371 397.81 256.412 397.739C256.453 397.668 256.51 397.608 256.577 397.561L278.355 382.159C278.455 382.079 278.58 382.036 278.708 382.036C278.836 382.036 278.96 382.079 279.061 382.159C279.156 382.242 279.22 382.354 279.243 382.478C279.265 382.602 279.245 382.731 279.186 382.842L266.914 406.418C266.869 406.499 266.807 406.569 266.732 406.623L265.958 407.169C265.869 407.256 265.752 407.308 265.628 407.317ZM257.784 398.085L265.685 405.985L265.958 405.792L277.091 384.435L257.784 398.085Z" fill="#263238"/>
<path d="M270.721 308.992L249.592 323.939L247.304 340.446L272.94 322.311L270.721 308.992Z" fill="#289476"/>
<path d="M247.301 341.015C247.197 341.018 247.094 340.99 247.005 340.936C246.909 340.878 246.831 340.794 246.783 340.693C246.734 340.591 246.716 340.478 246.732 340.367L249.009 323.86C249.031 323.706 249.113 323.567 249.237 323.473L270.365 308.537C270.444 308.48 270.536 308.443 270.632 308.431C270.729 308.419 270.827 308.431 270.917 308.468C271.007 308.504 271.086 308.564 271.147 308.639C271.208 308.715 271.249 308.806 271.265 308.902L273.473 322.221C273.496 322.326 273.486 322.435 273.445 322.535C273.405 322.634 273.335 322.719 273.245 322.779L247.609 340.913C247.518 340.975 247.411 341.011 247.301 341.015ZM250.125 324.213L248.019 339.228L272.301 322.05L270.286 309.983L250.125 324.213Z" fill="#263238"/>
<path d="M276.628 344.432L243.489 367.871L241.451 382.522L242.43 383.501L278.848 357.751L276.628 344.432Z" fill="#289476"/>
<path d="M242.428 384.069C242.352 384.071 242.277 384.058 242.207 384.03C242.136 384.003 242.072 383.962 242.018 383.909L241.039 382.93C240.977 382.866 240.931 382.789 240.903 382.704C240.876 382.619 240.867 382.529 240.879 382.441L242.917 367.79C242.944 367.635 243.03 367.496 243.156 367.403L276.295 343.963C276.374 343.908 276.466 343.874 276.562 343.864C276.657 343.854 276.754 343.868 276.843 343.906C276.932 343.943 277.009 344.003 277.069 344.079C277.128 344.154 277.168 344.244 277.183 344.339L279.403 357.658C279.417 357.763 279.404 357.87 279.364 357.968C279.324 358.066 279.259 358.151 279.175 358.216L242.746 383.966C242.652 384.03 242.542 384.066 242.428 384.069ZM242.052 382.327L242.485 382.76L278.219 357.487L276.215 345.421L244.01 368.188L242.052 382.327Z" fill="#263238"/>
<path d="M261.562 242.717L238.862 267.226L231.121 235.5L233.546 225.778L261.562 242.717Z" fill="white"/>
<path d="M238.909 267.795H238.761C238.662 267.77 238.572 267.718 238.5 267.646C238.428 267.574 238.377 267.484 238.351 267.385L230.621 235.658C230.599 235.569 230.599 235.475 230.621 235.385L233.046 225.663C233.069 225.578 233.111 225.5 233.168 225.433C233.225 225.366 233.296 225.312 233.376 225.276C233.456 225.237 233.544 225.217 233.633 225.217C233.721 225.217 233.809 225.237 233.889 225.276L261.859 242.25C261.933 242.293 261.995 242.353 262.042 242.423C262.09 242.494 262.12 242.575 262.132 242.659C262.143 242.743 262.136 242.829 262.11 242.909C262.084 242.99 262.042 243.064 261.984 243.126L239.285 267.636C239.182 267.732 239.049 267.788 238.909 267.795ZM231.76 235.499L239.216 266.065L260.721 242.842L233.968 226.665L231.76 235.499Z" fill="#263238"/>
<path d="M261.567 242.718L278.848 265.418L287.102 234.215L284.267 226.986L261.567 242.718Z" fill="white"/>
<path d="M278.848 265.987C278.761 265.985 278.675 265.966 278.596 265.928C278.518 265.891 278.448 265.837 278.392 265.77L261.112 243.003C261.064 242.942 261.03 242.872 261.012 242.798C260.994 242.723 260.993 242.645 261.009 242.57C261.02 242.494 261.047 242.421 261.089 242.357C261.13 242.292 261.184 242.237 261.248 242.194L283.936 226.462C284.009 226.413 284.092 226.381 284.178 226.367C284.265 226.353 284.353 226.358 284.437 226.382C284.518 226.412 284.592 226.457 284.654 226.516C284.717 226.575 284.767 226.645 284.802 226.724L287.636 233.941C287.67 234.056 287.67 234.179 287.636 234.294L279.383 265.508C279.357 265.613 279.302 265.707 279.223 265.78C279.144 265.853 279.045 265.901 278.939 265.918L278.848 265.987ZM262.387 242.855L278.597 264.154L286.509 234.283L284.005 227.908L262.387 242.855Z" fill="#263238"/>
<path d="M99.5612 225.48C99.5612 225.48 91.8201 209.725 87.9496 204.568C84.079 199.411 80.1971 196.303 75.8142 195.529C71.4314 194.755 68.3235 195.017 64.9653 193.719C61.607 192.422 54.8904 190.623 53.0918 188.301C51.2931 185.978 47.9234 187.526 49.4716 191.397C51.0199 195.267 56.45 197.852 56.45 197.852L60.8329 199.912C60.8329 199.912 46.637 201.984 45.6011 202.758C44.5651 203.532 32.168 204.568 32.168 204.568C32.168 204.568 37.5981 214.119 45.3393 218.513C53.0804 222.907 77.3624 219.287 77.3624 219.287L84.5913 234.519L99.5612 225.48Z" fill="white"/>
<path d="M84.6032 235.092H84.4325C84.3573 235.067 84.2881 235.027 84.2293 234.974C84.1705 234.921 84.1234 234.857 84.091 234.784L77.0329 219.985C73.6177 220.464 52.4321 223.253 45.078 219.086C37.28 214.589 31.9181 205.243 31.7246 204.845C31.6797 204.761 31.6562 204.667 31.6562 204.572C31.6562 204.476 31.6797 204.383 31.7246 204.298C31.769 204.214 31.8341 204.143 31.9138 204.091C31.9935 204.04 32.0851 204.009 32.1799 204.003C38.0882 203.513 44.6226 202.739 45.3284 202.306C46.2278 201.623 54.4356 200.303 58.9892 199.631L56.3026 198.368C56.0749 198.265 50.6106 195.647 49.051 191.617C48.0606 189.135 48.9144 187.564 49.9503 186.972C50.5782 186.655 51.3009 186.579 51.9809 186.76C52.661 186.94 53.251 187.364 53.6388 187.951C54.9365 189.625 59.3308 191.139 62.5866 192.243C63.5884 192.585 64.5219 192.903 65.2732 193.188C67.259 193.886 69.3313 194.307 71.4319 194.44C72.8208 194.577 74.2666 194.725 75.9173 195.021C80.2887 195.783 84.2503 198.732 88.4397 204.276C92.2988 209.421 99.8237 224.63 100.108 225.279C100.172 225.407 100.185 225.554 100.144 225.691C100.104 225.828 100.014 225.945 99.892 226.019L84.922 235.058C84.8201 235.095 84.7107 235.106 84.6032 235.092ZM77.3744 218.722C77.4814 218.72 77.5865 218.749 77.6774 218.806C77.7682 218.862 77.8409 218.944 77.8867 219.041L84.8423 233.703L98.8902 225.268C97.5696 222.615 90.9214 209.478 87.5062 204.913C83.5218 199.608 79.7878 196.808 75.7237 196.091C74.1072 195.806 72.6842 195.67 71.3181 195.533C69.0764 195.414 66.862 194.985 64.7382 194.258C63.9982 193.973 63.0875 193.655 62.0971 193.324C58.5453 192.106 54.1283 190.592 52.6142 188.657C52.393 188.29 52.0458 188.016 51.6373 187.886C51.2288 187.756 50.7869 187.779 50.3943 187.951C49.7454 188.327 49.2559 189.386 49.9845 191.184C51.4303 194.816 56.61 197.32 56.6669 197.343L61.0497 199.403C61.1608 199.457 61.2522 199.544 61.3114 199.652C61.3706 199.76 61.3945 199.884 61.3799 200.007C61.3594 200.128 61.301 200.24 61.213 200.326C61.1251 200.412 61.0121 200.467 60.8904 200.485C54.1852 201.464 46.6604 202.762 45.909 203.217C44.93 203.957 36.8018 204.742 33.1134 205.061C34.5819 207.338 39.3518 214.476 45.6358 218.016C53.1265 222.262 77.0443 218.756 77.2833 218.722H77.3744Z" fill="#263238"/>
<path d="M27.3026 202.018C27.3026 202.018 23.3182 193.537 23.6483 191.704C23.9785 189.871 27.4734 191.044 28.6345 193.537C29.7957 196.03 33.7915 202.018 33.7915 202.018H27.3026Z" fill="white"/>
<path d="M33.7766 202.591H27.2877C27.1801 202.589 27.0752 202.557 26.9848 202.499C26.8943 202.441 26.8218 202.358 26.7754 202.261C26.0924 200.815 22.7227 193.518 23.0756 191.606C23.1288 191.251 23.3008 190.925 23.5634 190.681C23.8261 190.437 24.1639 190.29 24.5214 190.263C25.5003 190.281 26.454 190.576 27.2721 191.114C28.0901 191.652 28.7389 192.411 29.1433 193.302C30.2817 195.738 34.2092 201.658 34.2547 201.715C34.309 201.802 34.3393 201.901 34.3426 202.004C34.3459 202.106 34.322 202.207 34.2735 202.298C34.2249 202.388 34.1534 202.463 34.0661 202.517C33.9788 202.571 33.879 202.6 33.7766 202.603V202.591ZM27.652 201.453H32.7179C31.0523 198.975 29.5135 196.414 28.1074 193.78C27.806 193.111 27.3297 192.536 26.7286 192.115C26.1274 191.695 25.4239 191.444 24.6922 191.39C24.3279 191.39 24.2482 191.617 24.214 191.811C23.9863 192.972 26.1493 198.197 27.652 201.453Z" fill="#263238"/>
<path d="M20.2236 197.979C20.2236 197.979 26.4165 211.15 30.5489 214.759C34.6813 218.368 42.9461 218.641 42.9461 218.641C42.9461 218.641 33.1331 208.304 31.0726 204.434C29.0121 200.563 21.4759 191.263 20.2236 197.979Z" fill="white"/>
<path d="M42.9464 219.211C42.6048 219.211 34.4311 218.903 30.1963 215.192C25.9614 211.481 19.9507 198.765 19.7344 198.219C19.6953 198.108 19.6953 197.988 19.7344 197.877C20.0531 196.181 20.7931 195.236 21.9201 195.065C25.1304 194.576 30.1052 201.292 31.642 204.172C33.6456 207.929 43.3334 218.14 43.4245 218.243C43.498 218.325 43.5467 218.426 43.5648 218.535C43.5829 218.644 43.5697 218.755 43.5267 218.857C43.4838 218.958 43.4128 219.045 43.3221 219.108C43.2314 219.171 43.1248 219.206 43.0147 219.211H42.9464ZM20.8159 197.911C21.5558 199.46 27.1795 211.06 30.9248 214.338C33.8392 216.888 39.0189 217.753 41.5234 217.958C38.9506 215.203 32.2682 207.895 30.5606 204.708C28.853 201.52 24.288 195.84 22.0226 196.192C21.4761 196.283 21.0549 196.853 20.8159 197.911Z" fill="#263238"/>
<path d="M25.208 199.143C25.208 199.143 31.4009 212.314 35.5333 215.934C39.6657 219.554 47.9305 219.804 47.9305 219.804C47.9305 219.804 38.1175 209.479 36.057 205.597C33.9965 201.715 26.4944 192.438 25.208 199.143Z" fill="white"/>
<path d="M47.9336 220.373C47.5921 220.373 39.4298 220.065 35.1836 216.354C30.9373 212.643 24.938 199.927 24.7217 199.392C24.6826 199.278 24.6826 199.154 24.7217 199.039C25.048 197.347 25.7766 196.414 26.9074 196.239C30.1291 195.738 35.0925 202.455 36.6293 205.346C38.6329 209.103 48.3207 219.314 48.4118 219.428C48.49 219.507 48.5426 219.608 48.5629 219.718C48.5832 219.827 48.5702 219.94 48.5256 220.043C48.4739 220.153 48.389 220.244 48.2828 220.303C48.1766 220.362 48.0544 220.387 47.9336 220.373ZM25.8031 199.074C26.5431 200.622 32.1668 212.222 35.9121 215.5C38.8378 218.05 44.0062 218.916 46.522 219.12C43.9379 216.366 37.2554 209.069 35.5592 205.87C33.863 202.671 29.2753 197.024 27.0098 197.366C26.4406 197.446 26.0308 198.026 25.8031 199.074Z" fill="#263238"/>
<path d="M81.2351 212.574C81.2351 212.574 79.9373 210.502 75.5431 207.667C71.1489 204.833 47.9142 212.05 47.9142 212.05C47.9142 212.05 37.327 198.89 35.7788 197.593C34.2306 196.295 31.3846 195.532 30.8723 198.116C30.36 200.7 37.327 211.777 39.1371 213.61C40.9471 215.443 47.9142 219.803 47.9142 219.803C52.1491 221.259 56.608 221.957 61.0854 221.863C66.5711 221.468 72.0133 220.607 77.3532 219.29" fill="white"/>
<path d="M60.0082 222.455C55.8302 222.414 51.6863 221.699 47.7362 220.338L47.6679 220.281C47.3833 220.099 40.6212 215.841 38.7998 214.008C37.1946 212.403 29.7723 200.997 30.3756 198.003C30.4309 197.553 30.6089 197.127 30.89 196.772C31.171 196.416 31.5445 196.145 31.9694 195.988C32.715 195.829 33.4877 195.849 34.2239 196.047C34.9601 196.245 35.6388 196.615 36.2042 197.126C37.6614 198.344 46.5523 209.341 48.1802 211.367C51.8572 210.229 71.6084 204.366 75.9116 207.155C80.2147 209.944 81.7061 212.153 81.763 212.232C81.8043 212.296 81.8324 212.366 81.8456 212.44C81.8588 212.515 81.8568 212.591 81.8398 212.664C81.8227 212.738 81.791 212.807 81.7465 212.868C81.702 212.928 81.6457 212.98 81.5808 213.018C81.5187 213.059 81.4488 213.087 81.3755 213.1C81.3022 213.113 81.227 213.111 81.1545 213.094C81.082 213.077 81.0137 213.045 80.9539 213.001C80.8941 212.956 80.844 212.9 80.8067 212.836C79.2675 210.928 77.3877 209.322 75.2627 208.1C71.8475 205.88 54.4983 210.559 48.1119 212.551C48.003 212.586 47.8861 212.587 47.7764 212.555C47.6668 212.522 47.5695 212.458 47.4971 212.369C43.8543 207.816 36.6368 198.982 35.4415 197.991C35.0277 197.602 34.5309 197.312 33.9887 197.142C33.4464 196.973 32.8728 196.928 32.3109 197.012C32.0791 197.107 31.8774 197.263 31.7271 197.464C31.5768 197.664 31.4835 197.902 31.4571 198.151C31.0245 200.291 37.5931 211.151 39.5625 213.12C41.2246 214.782 47.5313 218.812 48.1916 219.211C52.3451 220.61 56.7075 221.287 61.0896 221.214C66.5418 220.841 71.953 220.011 77.2663 218.733C77.4173 218.696 77.5764 218.722 77.7088 218.803C77.8412 218.884 77.9359 219.014 77.9721 219.165C78.0083 219.316 77.9831 219.475 77.902 219.608C77.8209 219.74 77.6905 219.835 77.5395 219.871C72.162 221.197 66.6819 222.065 61.1579 222.467C60.7481 222.455 60.3724 222.455 60.0082 222.455Z" fill="#263238"/>
<path d="M108.582 238.995L99.2809 222.545L76.752 236.138L82.4667 250.094L108.582 238.995Z" fill="white"/>
<path d="M82.4698 250.661C82.3981 250.671 82.3253 250.671 82.2535 250.661C82.1152 250.602 82.005 250.492 81.9462 250.353L76.2542 236.397C76.2049 236.27 76.2018 236.13 76.2455 236.001C76.2892 235.872 76.3769 235.762 76.4932 235.691L99.0222 222.099C99.0922 222.068 99.1678 222.053 99.2442 222.053C99.3205 222.053 99.3961 222.068 99.4662 222.099C99.613 222.138 99.7394 222.231 99.8191 222.361L109.131 238.719C109.162 238.791 109.178 238.869 109.178 238.947C109.178 239.025 109.162 239.103 109.131 239.175C109.106 239.251 109.064 239.321 109.009 239.38C108.954 239.439 108.887 239.486 108.812 239.516L82.6975 250.615C82.6245 250.642 82.5477 250.658 82.4698 250.661ZM77.4609 236.374L82.7772 249.34L107.822 238.719L99.1246 223.328L77.4609 236.374Z" fill="#263238"/>
<path d="M231.125 235.501L222.348 477.976H158.678L171.553 305.193C171.553 305.193 136.855 343.112 132.916 345.252C128.977 347.393 123.979 340.608 123.979 340.608L77.1113 248.661L105.013 233.281L135.75 283.37L140.395 280.148L143.97 281.935C143.97 281.935 175.845 225.779 178.315 224.345C180.785 222.91 192.625 223.628 192.625 223.628L223.362 226.132L233.778 223.855L231.125 235.501Z" fill="#289476"/>
<path d="M222.346 478.534H158.675C158.596 478.534 158.518 478.518 158.446 478.486C158.373 478.455 158.308 478.409 158.254 478.352C158.195 478.292 158.15 478.221 158.12 478.142C158.091 478.064 158.078 477.98 158.083 477.896L170.833 306.752C164.777 313.355 136.784 343.749 133.163 345.719C128.849 348.075 123.703 341.165 123.487 340.904L76.5963 248.922C76.5309 248.789 76.5192 248.635 76.5637 248.493C76.6082 248.351 76.7054 248.232 76.8354 248.159L104.738 232.78C104.866 232.711 105.015 232.692 105.157 232.728C105.298 232.764 105.421 232.851 105.5 232.973L135.941 282.55L140.108 279.67C140.194 279.62 140.292 279.594 140.392 279.594C140.492 279.594 140.59 279.62 140.677 279.67L143.773 281.218C148.088 273.614 175.557 225.312 178.062 223.889C180.566 222.466 191.461 223.024 192.69 223.092L223.427 225.597L233.752 223.32C233.845 223.298 233.942 223.3 234.034 223.326C234.125 223.352 234.209 223.401 234.276 223.468C234.343 223.538 234.392 223.623 234.418 223.717C234.444 223.81 234.446 223.909 234.424 224.003L231.737 235.58L222.972 477.976C222.969 478.054 222.95 478.131 222.917 478.202C222.884 478.273 222.836 478.337 222.778 478.389C222.719 478.441 222.651 478.481 222.577 478.506C222.502 478.53 222.424 478.54 222.346 478.534ZM159.29 477.396H221.833L230.588 235.478C230.583 235.44 230.583 235.402 230.588 235.364L233.081 224.606L223.552 226.678H223.382L192.645 224.174C189.423 223.98 180.601 223.707 178.665 224.811C176.753 226.109 157.206 259.839 144.513 282.197C144.441 282.324 144.323 282.419 144.183 282.461C144.043 282.504 143.892 282.491 143.762 282.425L140.483 280.786L136.112 283.814C136.048 283.859 135.976 283.891 135.9 283.906C135.823 283.922 135.744 283.921 135.668 283.905C135.593 283.888 135.521 283.856 135.459 283.811C135.396 283.766 135.343 283.709 135.304 283.643L104.806 234.032L77.8713 248.888L124.477 340.334C124.477 340.334 129.19 346.63 132.64 344.74C135.691 343.078 159.153 317.885 171.129 304.794C171.209 304.706 171.315 304.646 171.432 304.621C171.548 304.597 171.669 304.61 171.778 304.657C171.886 304.706 171.977 304.787 172.038 304.888C172.099 304.99 172.128 305.108 172.119 305.227L159.29 477.396Z" fill="#263238"/>
<path d="M171.906 299.808L174.126 277.724L157.562 319.844L171.553 305.181L171.906 299.808Z" fill="#263238"/>
<path d="M157.558 320.413C157.449 320.412 157.343 320.381 157.251 320.322C157.14 320.251 157.057 320.145 157.016 320.021C156.974 319.896 156.977 319.761 157.023 319.639L173.599 277.518C173.649 277.391 173.743 277.286 173.864 277.221C173.985 277.157 174.125 277.137 174.259 277.166C174.393 277.198 174.511 277.278 174.591 277.391C174.671 277.504 174.706 277.643 174.691 277.78L172.415 299.865L172.062 305.215C172.051 305.348 171.995 305.473 171.902 305.568L157.968 320.231C157.917 320.288 157.854 320.334 157.783 320.366C157.712 320.397 157.636 320.413 157.558 320.413ZM173.143 281.708L159.152 317.385L170.992 304.965L171.333 299.808L173.143 281.708Z" fill="#263238"/>
<path d="M170.117 284.645C169.981 284.643 169.85 284.593 169.748 284.503C169.645 284.413 169.579 284.29 169.56 284.155C169.195 281.662 166.793 247.989 166.691 246.588C166.686 246.514 166.695 246.439 166.719 246.368C166.743 246.297 166.78 246.231 166.829 246.174C166.929 246.06 167.069 245.99 167.22 245.979C167.371 245.969 167.52 246.019 167.634 246.118C167.749 246.217 167.819 246.358 167.829 246.509C167.829 246.862 170.334 281.571 170.687 284.075C170.706 284.225 170.665 284.376 170.574 284.495C170.482 284.615 170.346 284.693 170.197 284.713L170.117 284.645Z" fill="#263238"/>
<path d="M167.264 297.519C167.128 297.521 166.995 297.473 166.891 297.386C166.786 297.298 166.717 297.175 166.695 297.041L162.767 271.996C162.754 271.923 162.756 271.848 162.773 271.775C162.789 271.702 162.82 271.634 162.864 271.573C162.907 271.513 162.962 271.462 163.026 271.423C163.09 271.384 163.16 271.358 163.234 271.347C163.385 271.324 163.539 271.362 163.662 271.451C163.786 271.541 163.869 271.675 163.894 271.826L167.822 296.87C167.835 296.943 167.833 297.019 167.816 297.091C167.8 297.164 167.769 297.232 167.725 297.293C167.682 297.353 167.627 297.405 167.563 297.443C167.499 297.482 167.429 297.508 167.355 297.519H167.264Z" fill="#263238"/>
<path d="M126.116 306.102C126.034 306.123 125.948 306.123 125.866 306.102C125.732 306.036 125.63 305.92 125.582 305.78C125.533 305.639 125.541 305.485 125.604 305.351L134.904 285.998C134.933 285.926 134.976 285.859 135.031 285.804C135.087 285.749 135.153 285.706 135.225 285.677C135.298 285.648 135.376 285.635 135.454 285.638C135.532 285.64 135.609 285.659 135.68 285.693C135.75 285.726 135.813 285.774 135.864 285.833C135.915 285.892 135.954 285.961 135.977 286.036C136.001 286.111 136.008 286.189 136 286.267C135.992 286.345 135.968 286.42 135.929 286.488L126.628 305.84C126.576 305.927 126.5 305.998 126.409 306.044C126.319 306.09 126.217 306.11 126.116 306.102Z" fill="#263238"/>
<path d="M136.134 300.025C136.048 300.023 135.962 300.004 135.884 299.968C135.75 299.899 135.648 299.781 135.599 299.639C135.55 299.497 135.558 299.341 135.622 299.205L143.135 284.178C143.168 284.111 143.214 284.051 143.27 284.001C143.327 283.952 143.392 283.914 143.464 283.891C143.535 283.868 143.61 283.859 143.685 283.865C143.759 283.872 143.832 283.893 143.898 283.928C143.965 283.961 144.026 284.006 144.075 284.063C144.125 284.119 144.163 284.184 144.187 284.255C144.212 284.326 144.222 284.401 144.217 284.475C144.212 284.55 144.193 284.623 144.16 284.691L136.647 299.706C136.6 299.802 136.527 299.882 136.436 299.939C136.346 299.995 136.241 300.025 136.134 300.025Z" fill="#263238"/>
<path d="M219.487 347.596C219.369 347.6 219.254 347.565 219.157 347.497C219.061 347.43 218.989 347.333 218.952 347.221C213.454 331.841 209.31 308.015 206.794 290.723C206.774 290.575 206.814 290.425 206.903 290.306C206.992 290.187 207.125 290.108 207.272 290.085C207.421 290.065 207.572 290.104 207.693 290.193C207.814 290.282 207.896 290.415 207.921 290.563C210.426 307.798 214.558 331.545 220.022 346.845C220.047 346.915 220.058 346.99 220.053 347.064C220.049 347.138 220.03 347.211 219.997 347.278C219.964 347.345 219.918 347.404 219.862 347.453C219.806 347.502 219.74 347.539 219.669 347.562C219.611 347.584 219.549 347.596 219.487 347.596Z" fill="#263238"/>
<path d="M206.238 283.118C206.101 283.117 205.968 283.067 205.864 282.977C205.759 282.888 205.69 282.764 205.669 282.628C204.986 277.437 204.61 274.147 204.61 274.124C204.599 274.018 204.618 273.911 204.664 273.814C204.71 273.718 204.782 273.636 204.872 273.578L217.941 265.074L201.867 262.456C201.766 262.441 201.672 262.4 201.594 262.335C201.516 262.271 201.457 262.187 201.423 262.092C201.388 261.996 201.38 261.893 201.398 261.793C201.416 261.694 201.46 261.6 201.525 261.522C201.525 261.522 205.122 257.197 208.64 251.915C212.158 246.632 223.542 229.147 223.656 229.033C223.739 228.906 223.87 228.816 224.019 228.784C224.168 228.752 224.324 228.78 224.452 228.862C224.577 228.946 224.664 229.075 224.694 229.222C224.724 229.369 224.694 229.522 224.612 229.648C224.498 229.83 213.125 247.247 209.585 252.552C206.91 256.559 204.212 260.008 203.016 261.488L219.557 264.198C219.671 264.216 219.776 264.268 219.859 264.347C219.943 264.427 220 264.529 220.024 264.642C220.045 264.754 220.033 264.87 219.988 264.975C219.944 265.081 219.869 265.171 219.774 265.234L205.76 274.341C205.874 275.308 206.215 278.268 206.773 282.48C206.792 282.63 206.752 282.781 206.66 282.9C206.568 283.02 206.433 283.098 206.284 283.118H206.238Z" fill="#263238"/>
<path d="M418.469 225.48C418.469 225.48 426.21 209.724 430.092 204.568C433.974 199.411 437.833 196.303 442.227 195.529C446.621 194.755 449.706 195.017 453.065 193.719C456.423 192.421 463.14 190.622 464.95 188.3C466.76 185.978 470.107 187.526 468.558 191.397C467.01 195.267 461.591 197.851 461.591 197.851L457.197 199.912C457.197 199.912 471.404 201.983 472.429 202.758C473.453 203.532 485.862 204.568 485.862 204.568C485.862 204.568 480.432 214.119 472.691 218.513C464.95 222.907 440.679 219.287 440.679 219.287L433.45 234.518L418.469 225.48Z" fill="white"/>
<path d="M433.446 235.092C433.346 235.089 433.249 235.061 433.162 235.013L418.18 225.974C418.06 225.898 417.971 225.781 417.932 225.645C417.892 225.508 417.903 225.362 417.964 225.234C418.283 224.585 425.785 209.376 429.644 204.231C433.799 198.687 437.772 195.738 442.166 194.976C443.817 194.68 445.263 194.532 446.652 194.395C448.781 194.286 450.885 193.88 452.901 193.188C453.664 192.904 454.586 192.585 455.588 192.243C458.821 191.105 463.238 189.625 464.536 187.952C464.922 187.363 465.512 186.937 466.193 186.756C466.873 186.576 467.597 186.653 468.224 186.973C469.26 187.565 470.125 189.136 469.135 191.617C467.518 195.647 462.1 198.266 461.872 198.368L459.185 199.632C463.648 200.303 471.901 201.624 472.846 202.307C473.541 202.739 480.075 203.513 485.983 204.003C486.079 204.009 486.171 204.039 486.251 204.091C486.332 204.143 486.397 204.215 486.442 204.3C486.486 204.384 486.508 204.479 486.506 204.574C486.503 204.67 486.476 204.763 486.427 204.845C486.211 205.244 480.838 214.59 473.051 219.007C465.697 223.173 444.454 220.384 441.085 219.906L434.038 234.705C434.003 234.778 433.954 234.842 433.893 234.895C433.833 234.948 433.762 234.988 433.685 235.013L433.446 235.092ZM419.216 225.268L433.207 233.703L440.163 219.041C440.217 218.931 440.304 218.841 440.413 218.784C440.521 218.726 440.645 218.705 440.766 218.722C441.005 218.722 464.934 222.263 472.414 218.016C478.663 214.476 483.445 207.395 484.936 205.062C481.282 204.743 473.119 203.923 472.129 203.217C471.4 202.751 463.864 201.464 457.159 200.485C457.038 200.469 456.926 200.413 456.839 200.327C456.753 200.241 456.697 200.128 456.681 200.007C456.662 199.886 456.682 199.761 456.74 199.652C456.797 199.544 456.888 199.457 457 199.404L461.383 197.343C461.439 197.343 466.631 194.805 468.076 191.185C468.793 189.386 468.304 188.327 467.666 187.952C467.267 187.766 466.813 187.735 466.392 187.866C465.971 187.996 465.614 188.278 465.39 188.658C463.887 190.593 459.459 192.073 455.907 193.325C454.928 193.655 454.017 193.974 453.266 194.258C451.153 194.983 448.95 195.412 446.72 195.533C445.354 195.67 443.931 195.807 442.314 196.091C438.262 196.808 434.516 199.609 430.543 204.914C427.128 209.479 420.537 222.616 419.216 225.268Z" fill="#263238"/>
<path d="M490.747 202.018C490.747 202.018 494.731 193.537 494.401 191.704C494.071 189.871 490.576 191.044 489.415 193.537C488.254 196.03 484.258 202.018 484.258 202.018H490.747Z" fill="white"/>
<path d="M490.745 202.591H484.256C484.153 202.588 484.053 202.558 483.965 202.504C483.877 202.45 483.805 202.374 483.755 202.284C483.7 202.197 483.67 202.096 483.67 201.993C483.67 201.89 483.7 201.789 483.755 201.703C483.755 201.703 487.729 195.726 488.867 193.29C489.265 192.409 489.903 191.657 490.708 191.121C491.514 190.586 492.454 190.288 493.421 190.262C493.778 190.289 494.116 190.437 494.378 190.681C494.641 190.925 494.813 191.251 494.866 191.605C495.219 193.518 491.85 200.815 491.166 202.261C491.128 202.346 491.069 202.42 490.996 202.477C490.923 202.535 490.837 202.574 490.745 202.591ZM485.315 201.453H490.381C491.895 198.197 494.047 192.972 493.796 191.81C493.796 191.617 493.682 191.435 493.318 191.389C492.587 191.445 491.884 191.696 491.283 192.116C490.682 192.537 490.205 193.112 489.903 193.78C488.504 196.413 486.973 198.974 485.315 201.453Z" fill="#263238"/>
<path d="M497.813 197.979C497.813 197.979 491.62 211.15 487.488 214.759C483.356 218.368 475.091 218.641 475.091 218.641C475.091 218.641 484.904 208.304 486.976 204.434C489.048 200.563 496.527 191.263 497.813 197.979Z" fill="white"/>
<path d="M475.095 219.209C474.986 219.207 474.879 219.174 474.789 219.114C474.698 219.053 474.626 218.968 474.583 218.868C474.537 218.765 474.523 218.651 474.541 218.539C474.559 218.428 474.609 218.325 474.685 218.242C474.788 218.139 484.475 207.928 486.479 204.171C488.016 201.291 492.991 194.563 496.201 195.064C497.339 195.235 498.057 196.202 498.375 197.876C498.41 197.987 498.41 198.106 498.375 198.217C498.113 198.764 492.08 211.537 487.902 215.191C483.724 218.845 475.493 219.198 475.152 219.209H475.095ZM495.825 196.18C493.548 196.18 489.097 201.678 487.481 204.706C485.864 207.734 479.091 215.202 476.518 217.957C479.022 217.707 484.202 216.887 487.116 214.337C490.862 211.058 496.486 199.458 497.225 197.91C496.998 196.851 496.588 196.282 496.03 196.191L495.825 196.18Z" fill="#263238"/>
<path d="M492.828 199.142C492.828 199.142 486.635 212.313 482.503 215.933C478.37 219.553 470.105 219.804 470.105 219.804C470.105 219.804 479.918 209.479 481.99 205.597C484.062 201.715 491.542 192.437 492.828 199.142Z" fill="white"/>
<path d="M470.115 220.371C470.006 220.369 469.899 220.336 469.809 220.276C469.718 220.215 469.646 220.13 469.603 220.03C469.553 219.929 469.537 219.816 469.555 219.706C469.574 219.596 469.626 219.494 469.705 219.415C469.808 219.301 479.484 209.09 481.488 205.333C483.024 202.453 487.976 195.737 491.209 196.226C492.348 196.397 493.076 197.364 493.395 199.026C493.434 199.141 493.434 199.265 493.395 199.379C493.145 199.914 487.1 212.698 482.933 216.341C478.767 219.984 470.525 220.348 470.183 220.36L470.115 220.371ZM490.845 197.342C488.511 197.342 484.106 202.84 482.501 205.868C480.793 209.067 474.111 216.364 471.538 219.119C474.042 218.868 479.222 218.049 482.136 215.499C485.882 212.22 491.505 200.62 492.245 199.072C492.018 198.025 491.608 197.444 491.039 197.364L490.845 197.342Z" fill="#263238"/>
<path d="M436.8 212.574C436.8 212.574 438.098 210.502 442.492 207.667C446.886 204.833 470.121 212.05 470.121 212.05C470.121 212.05 480.708 198.89 482.256 197.593C483.804 196.295 486.65 195.532 487.163 198.116C487.675 200.7 480.708 211.777 478.898 213.61C477.088 215.443 470.121 219.803 470.121 219.803C465.886 221.259 461.427 221.957 456.949 221.863C451.467 221.469 446.029 220.608 440.693 219.29" fill="white"/>
<path d="M458.059 222.455C457.684 222.455 457.308 222.455 456.921 222.455C451.397 222.055 445.917 221.186 440.539 219.859C440.388 219.823 440.258 219.729 440.177 219.596C440.096 219.464 440.07 219.305 440.107 219.154C440.143 219.003 440.238 218.872 440.37 218.791C440.502 218.71 440.662 218.685 440.813 218.721C446.112 220.027 451.512 220.883 456.955 221.282C461.338 221.363 465.701 220.685 469.853 219.279C470.491 218.869 476.82 214.851 478.482 213.189C480.452 211.219 487.02 200.359 486.588 198.219C486.564 197.969 486.471 197.73 486.321 197.53C486.17 197.329 485.967 197.173 485.734 197.08C485.172 196.997 484.598 197.042 484.056 197.211C483.514 197.381 483.017 197.671 482.603 198.059C481.465 199.05 474.202 207.895 470.548 212.437C470.475 212.526 470.378 212.591 470.268 212.623C470.159 212.656 470.042 212.654 469.933 212.619C463.546 210.639 446.209 205.96 442.782 208.168C438.593 210.878 437.295 212.881 437.283 212.893C437.203 213.021 437.076 213.112 436.928 213.146C436.781 213.18 436.626 213.155 436.498 213.075C436.37 212.995 436.278 212.867 436.244 212.72C436.21 212.572 436.236 212.418 436.316 212.289C436.316 212.21 437.727 210.092 442.167 207.212C446.607 204.332 466.222 210.286 469.91 211.424C471.538 209.398 480.417 198.401 481.875 197.183C482.442 196.675 483.121 196.307 483.856 196.109C484.592 195.911 485.364 195.889 486.109 196.045C486.536 196.2 486.911 196.47 487.192 196.826C487.473 197.182 487.65 197.609 487.703 198.059C488.307 201.053 480.873 212.46 479.29 214.065C477.458 215.898 470.696 220.155 470.411 220.338L470.308 220.395C466.363 221.736 462.227 222.432 458.059 222.455Z" fill="#263238"/>
<path d="M409.454 238.995L418.755 222.545L441.295 236.137L435.569 250.094L409.454 238.995Z" fill="white"/>
<path d="M435.576 250.665C435.5 250.676 435.424 250.676 435.348 250.665L409.233 239.566C409.159 239.537 409.092 239.491 409.039 239.431C408.986 239.372 408.947 239.301 408.926 239.224C408.892 239.153 408.875 239.075 408.875 238.997C408.875 238.918 408.892 238.84 408.926 238.769L418.227 222.308C418.306 222.179 418.433 222.085 418.58 222.046C418.65 222.016 418.725 222 418.802 222C418.878 222 418.953 222.016 419.023 222.046L441.552 235.65C441.667 235.722 441.752 235.833 441.794 235.962C441.835 236.09 441.83 236.23 441.78 236.356L436.088 250.312C436.029 250.45 435.919 250.561 435.781 250.619C435.715 250.644 435.646 250.66 435.576 250.665ZM410.269 238.723L435.314 249.344L440.63 236.378L419.001 223.332L410.269 238.723Z" fill="#263238"/>
<path d="M286.912 235.5L295.69 477.975H359.372L346.485 305.18C346.485 305.18 381.183 343.1 385.122 345.24C389.061 347.38 394.07 340.595 394.07 340.595L440.927 248.66L413.081 233.28L382.345 283.369L377.688 280.147L374.114 281.934C374.114 281.934 342.239 225.778 339.768 224.344C337.298 222.909 325.459 223.627 325.459 223.627L294.722 226.131L283.338 223.854L286.912 235.5Z" fill="#289476"/>
<path d="M359.378 478.534H295.696C295.548 478.531 295.407 478.472 295.301 478.368C295.195 478.264 295.133 478.124 295.127 477.976L286.35 235.592L282.662 224.037C282.633 223.941 282.629 223.839 282.651 223.742C282.673 223.644 282.72 223.554 282.787 223.479C282.852 223.405 282.936 223.349 283.03 223.317C283.124 223.285 283.225 223.278 283.322 223.297L294.706 225.574L325.386 223.069C326.627 223.001 337.453 222.386 340.026 223.866C342.598 225.346 370 273.591 374.314 281.195L377.411 279.647C377.499 279.597 377.599 279.571 377.701 279.571C377.803 279.571 377.903 279.597 377.991 279.647L382.146 282.527L412.599 232.951C412.676 232.829 412.797 232.742 412.936 232.706C413.076 232.67 413.223 232.688 413.35 232.757L441.252 248.137C441.382 248.209 441.479 248.328 441.524 248.47C441.568 248.612 441.557 248.766 441.491 248.899L394.623 340.835C394.361 341.199 389.227 348.087 384.901 345.719C381.293 343.749 353.299 313.355 347.232 306.752L359.948 477.896C359.953 477.976 359.941 478.055 359.914 478.13C359.886 478.204 359.843 478.272 359.788 478.329C359.739 478.391 359.677 478.441 359.606 478.476C359.535 478.512 359.457 478.531 359.378 478.534ZM296.243 477.395H358.764L345.923 305.227C345.914 305.107 345.943 304.987 346.006 304.885C346.07 304.782 346.164 304.703 346.275 304.657C346.382 304.609 346.502 304.596 346.617 304.62C346.732 304.645 346.835 304.706 346.913 304.794C358.9 317.885 382.351 343.078 385.402 344.706C388.817 346.595 393.565 340.289 393.621 340.22L440.182 248.854L413.236 233.998L382.75 283.62C382.711 283.687 382.659 283.745 382.596 283.79C382.533 283.835 382.461 283.866 382.385 283.882C382.309 283.899 382.23 283.899 382.154 283.883C382.077 283.868 382.005 283.836 381.942 283.791L377.57 280.763L374.291 282.402C374.163 282.467 374.014 282.48 373.876 282.437C373.738 282.395 373.621 282.301 373.551 282.174C360.87 259.816 341.323 226.086 339.399 224.788C337.476 223.65 328.653 223.957 325.409 224.151L294.672 226.655H294.512L284.039 224.584L287.454 235.307C287.461 235.356 287.461 235.406 287.454 235.455L296.243 477.395Z" fill="#263238"/>
<path d="M346.492 305.181L346.06 287.729L359.868 318.807L346.492 305.181Z" fill="#263238"/>
<path d="M359.868 319.377C359.794 319.378 359.72 319.363 359.651 319.333C359.582 319.304 359.521 319.261 359.47 319.206L346.094 305.545C345.992 305.441 345.931 305.304 345.923 305.158L345.49 287.787C345.489 287.655 345.532 287.528 345.613 287.425C345.694 287.321 345.807 287.248 345.934 287.217C346.063 287.185 346.198 287.199 346.317 287.257C346.436 287.316 346.53 287.415 346.583 287.536L360.392 318.614C360.446 318.735 360.455 318.872 360.417 318.999C360.38 319.126 360.298 319.236 360.187 319.308C360.09 319.364 359.979 319.388 359.868 319.377ZM347.061 304.942L358.07 316.166L346.686 290.576L347.061 304.942Z" fill="#263238"/>
<path d="M346.14 300.376C345.997 300.377 345.858 300.323 345.753 300.226C345.647 300.129 345.582 299.995 345.571 299.852L342.349 252.632C342.344 252.558 342.353 252.483 342.377 252.412C342.401 252.34 342.438 252.275 342.488 252.218C342.537 252.162 342.597 252.115 342.664 252.082C342.731 252.049 342.804 252.029 342.878 252.023C342.953 252.018 343.028 252.028 343.099 252.051C343.17 252.075 343.236 252.113 343.293 252.162C343.349 252.211 343.395 252.271 343.429 252.338C343.462 252.405 343.482 252.478 343.487 252.553L346.709 299.773C346.714 299.848 346.704 299.923 346.679 299.993C346.655 300.064 346.617 300.129 346.567 300.186C346.517 300.242 346.457 300.287 346.389 300.32C346.322 300.353 346.249 300.372 346.174 300.376H346.14Z" fill="#263238"/>
<path d="M347.924 284.643H347.844C347.697 284.62 347.565 284.541 347.475 284.421C347.386 284.302 347.347 284.153 347.366 284.005C347.708 281.546 349.427 261.738 349.438 261.545C349.458 261.395 349.533 261.258 349.649 261.161C349.765 261.064 349.913 261.014 350.064 261.021C350.213 261.036 350.351 261.108 350.447 261.223C350.543 261.338 350.589 261.487 350.577 261.636C350.508 262.456 348.846 281.671 348.493 284.164C348.469 284.298 348.399 284.419 348.295 284.507C348.191 284.594 348.06 284.642 347.924 284.643Z" fill="#263238"/>
<path d="M350.788 297.518H350.697C350.623 297.508 350.551 297.484 350.486 297.445C350.421 297.407 350.364 297.356 350.32 297.296C350.275 297.235 350.243 297.166 350.226 297.093C350.209 297.019 350.206 296.943 350.219 296.869L354.158 271.825C354.169 271.75 354.195 271.678 354.234 271.613C354.273 271.549 354.324 271.492 354.385 271.447C354.446 271.402 354.515 271.37 354.588 271.352C354.662 271.333 354.738 271.33 354.813 271.341C354.887 271.352 354.959 271.378 355.024 271.417C355.089 271.456 355.145 271.507 355.19 271.568C355.235 271.629 355.268 271.698 355.286 271.771C355.304 271.844 355.308 271.921 355.296 271.995L351.358 297.04C351.338 297.176 351.269 297.299 351.164 297.388C351.059 297.476 350.925 297.522 350.788 297.518Z" fill="#263238"/>
<path d="M384.43 297.144C384.296 297.141 384.167 297.092 384.066 297.005C383.964 296.917 383.896 296.798 383.872 296.666L382.062 286.318C382.049 286.243 382.051 286.167 382.068 286.093C382.085 286.019 382.116 285.949 382.16 285.887C382.204 285.825 382.26 285.773 382.324 285.733C382.388 285.692 382.46 285.665 382.534 285.652C382.609 285.64 382.686 285.642 382.76 285.659C382.833 285.675 382.903 285.707 382.965 285.75C383.027 285.794 383.08 285.85 383.12 285.914C383.16 285.978 383.188 286.05 383.2 286.125L385.022 296.473C385.045 296.622 385.009 296.774 384.922 296.897C384.835 297.021 384.703 297.105 384.555 297.133L384.43 297.144Z" fill="#263238"/>
<path d="M374.279 292.067C374.129 292.058 373.989 291.993 373.886 291.886C373.782 291.778 373.723 291.635 373.721 291.486L373.835 284.417C373.85 284.27 373.917 284.134 374.023 284.032C374.129 283.93 374.268 283.869 374.415 283.859C374.49 283.86 374.564 283.877 374.632 283.907C374.701 283.937 374.762 283.98 374.814 284.034C374.866 284.088 374.907 284.151 374.934 284.221C374.961 284.29 374.974 284.365 374.973 284.439L374.859 291.497C374.859 291.573 374.844 291.648 374.815 291.718C374.785 291.788 374.742 291.851 374.688 291.904C374.634 291.957 374.57 291.999 374.5 292.027C374.429 292.055 374.354 292.068 374.279 292.067Z" fill="#263238"/>
<path d="M298.565 347.596C298.501 347.613 298.435 347.613 298.371 347.596C298.23 347.546 298.114 347.444 298.048 347.309C297.982 347.175 297.971 347.02 298.018 346.878C298.884 344.465 299.749 341.733 300.591 338.75C300.611 338.676 300.646 338.606 300.693 338.544C300.741 338.483 300.799 338.431 300.867 338.393C300.934 338.354 301.008 338.329 301.084 338.319C301.161 338.309 301.239 338.315 301.314 338.335C301.389 338.355 301.459 338.39 301.52 338.437C301.581 338.484 301.633 338.543 301.671 338.61C301.71 338.677 301.735 338.751 301.745 338.828C301.755 338.905 301.75 338.983 301.73 339.058C300.876 342.063 299.999 344.829 299.134 347.254C299.087 347.363 299.006 347.455 298.904 347.516C298.802 347.578 298.683 347.605 298.565 347.596Z" fill="#263238"/>
<path d="M302.663 333.992H302.515C302.371 333.954 302.248 333.862 302.171 333.734C302.095 333.606 302.071 333.454 302.106 333.309C308.162 309.403 311.896 278.018 312.351 274.363L298.337 265.256C298.242 265.194 298.168 265.104 298.125 264.998C298.082 264.892 298.073 264.776 298.098 264.664C298.118 264.552 298.173 264.449 298.255 264.369C298.337 264.29 298.441 264.238 298.554 264.22L315.118 261.511C313.979 260.031 311.224 256.582 308.549 252.575C305.009 247.27 293.636 229.807 293.522 229.671C293.45 229.544 293.429 229.394 293.464 229.253C293.498 229.111 293.586 228.989 293.709 228.91C293.831 228.831 293.979 228.802 294.123 228.829C294.266 228.857 294.393 228.938 294.478 229.056C294.592 229.227 305.965 246.644 309.494 251.937C313.023 257.231 316.586 261.511 316.62 261.545C316.682 261.625 316.722 261.719 316.738 261.818C316.754 261.918 316.745 262.02 316.711 262.114C316.677 262.21 316.618 262.294 316.54 262.358C316.462 262.422 316.367 262.464 316.267 262.479L300.193 265.097L313.273 273.601C313.362 273.659 313.432 273.742 313.477 273.838C313.521 273.935 313.537 274.042 313.524 274.147C313.524 274.477 309.676 308.185 303.278 333.582C303.241 333.712 303.159 333.825 303.046 333.9C302.934 333.975 302.798 334.008 302.663 333.992Z" fill="#263238"/>
<path d="M233.444 201.453L233.547 225.78L261.563 242.719L284.263 226.987L282.168 199.393C282.168 199.393 264.625 210.776 262.303 211.255C259.98 211.733 233.444 201.453 233.444 201.453Z" fill="white"/>
<path d="M261.566 243.285C261.462 243.287 261.359 243.259 261.27 243.205L233.22 226.311C233.136 226.259 233.066 226.187 233.017 226.102C232.967 226.017 232.939 225.92 232.935 225.822L232.833 201.495C232.835 201.403 232.859 201.313 232.902 201.232C232.946 201.151 233.008 201.081 233.083 201.029C233.159 200.977 233.246 200.943 233.337 200.931C233.428 200.919 233.521 200.929 233.607 200.959C243.853 204.921 260.542 211.068 262.17 210.738C263.797 210.408 274.829 203.487 281.853 198.956C281.937 198.906 282.033 198.879 282.131 198.879C282.23 198.879 282.326 198.906 282.41 198.956C282.499 199 282.575 199.066 282.63 199.148C282.686 199.23 282.72 199.324 282.729 199.423L284.79 227.017C284.797 227.117 284.777 227.217 284.733 227.307C284.689 227.397 284.622 227.474 284.539 227.529L261.851 243.262C261.759 243.292 261.662 243.3 261.566 243.285ZM234.119 225.457L261.543 242.044L283.674 226.698L281.705 200.379C277.971 202.792 264.629 211.33 262.466 211.763C260.303 212.195 239.846 204.488 234.006 202.234L234.119 225.457Z" fill="#263238"/>
<path d="M233.834 221.122L260.439 214.531L233.55 203.557L233.834 221.122Z" fill="#263238"/>
<path d="M233.835 221.681C233.708 221.684 233.584 221.644 233.482 221.568C233.415 221.515 233.36 221.448 233.322 221.371C233.285 221.294 233.266 221.209 233.266 221.124L232.981 203.547C232.981 203.453 233.004 203.36 233.048 203.277C233.091 203.194 233.155 203.122 233.232 203.069C233.314 203.024 233.406 203 233.499 203C233.593 203 233.685 203.024 233.767 203.069L260.656 214.043C260.767 214.088 260.862 214.168 260.925 214.27C260.988 214.372 261.018 214.492 261.009 214.612C260.997 214.731 260.949 214.844 260.872 214.935C260.795 215.027 260.692 215.093 260.576 215.124L233.972 221.704L233.835 221.681ZM234.143 204.412L234.393 220.349L258.607 214.35L234.143 204.412Z" fill="#263238"/>
<path d="M282.167 171.01C282.167 171.01 281.906 159.923 285.002 153.73C285.994 151.725 286.509 149.518 286.509 147.281C286.509 145.044 285.994 142.837 285.002 140.832L287.859 139.796C286.304 138.493 284.669 137.288 282.964 136.187C282.19 135.925 283.477 128.97 281.154 125.35C278.832 121.73 276.51 120.967 276.51 120.967L275.223 125.612C275.223 125.612 268.256 117.358 264.386 115.81C260.515 114.262 249.438 106.783 249.154 110.653C248.869 114.524 250.452 116.072 250.452 116.072C250.452 116.072 242.71 111.678 236.791 113.226C230.871 114.774 225.179 118.394 226.465 119.681C227.752 120.967 233.432 126.386 233.432 126.386C233.432 126.386 220.284 126.898 218.736 128.446C217.697 129.65 216.921 131.057 216.459 132.579L223.938 136.449C223.938 136.449 217.233 135.925 214.649 140.058C212.065 144.19 211.552 145.75 213.362 146.501C215.151 147.412 216.874 148.447 218.519 149.597C218.519 149.597 216.709 152.694 218.781 157.851C220.853 163.008 225.737 174.369 225.737 174.369C225.737 174.369 227.547 155.79 228.833 152.182C230.12 148.573 246.126 140.058 248.437 139.284C250.748 138.51 267.015 142.892 268.051 142.892C269.087 142.892 275.781 168.95 277.329 169.974C278.877 170.999 282.167 171.01 282.167 171.01Z" fill="#263238"/>
<path d="M225.703 174.939C225.593 174.936 225.485 174.901 225.394 174.839C225.303 174.776 225.233 174.688 225.191 174.586C225.191 174.472 220.261 163.202 218.212 158.068C216.516 153.834 217.324 150.908 217.768 149.804C216.28 148.768 214.72 147.84 213.101 147.026C212.797 146.923 212.521 146.753 212.292 146.528C212.063 146.303 211.889 146.03 211.78 145.728C211.393 144.487 212.27 142.746 214.137 139.752C215.89 136.94 219.339 136.132 221.65 135.927L216.14 133.081C216.021 133.024 215.927 132.925 215.874 132.804C215.822 132.683 215.815 132.546 215.856 132.421C216.354 130.804 217.192 129.314 218.315 128.049C219.726 126.638 228.333 126.068 232.067 125.875C230.393 124.27 227.012 121.037 226.056 120.08C225.895 119.93 225.781 119.735 225.729 119.521C225.676 119.307 225.687 119.082 225.76 118.874C226.318 116.813 231.964 113.899 236.632 112.681C241.094 111.543 246.422 113.523 249.074 114.741C248.632 113.416 248.465 112.013 248.585 110.621C248.587 110.337 248.664 110.06 248.808 109.816C248.952 109.572 249.157 109.37 249.404 109.232C251.123 108.287 255.005 110.233 260.299 113.102C261.984 114.013 263.578 114.878 264.591 115.288C267.858 116.586 273.06 122.289 274.95 124.395L275.952 120.775C275.974 120.7 276.01 120.631 276.059 120.57C276.108 120.51 276.168 120.459 276.237 120.422C276.306 120.389 276.382 120.371 276.458 120.371C276.535 120.371 276.611 120.389 276.68 120.422C276.783 120.422 279.219 121.299 281.621 124.976C283.181 127.4 283.204 131.146 283.215 133.627C283.199 134.304 283.229 134.981 283.306 135.654C285.013 136.765 286.651 137.978 288.212 139.285C288.291 139.351 288.351 139.435 288.387 139.531C288.423 139.627 288.433 139.73 288.417 139.831C288.398 139.93 288.353 140.021 288.287 140.097C288.221 140.173 288.136 140.231 288.042 140.264L285.765 141.084C286.674 143.108 287.121 145.31 287.074 147.529C287.027 149.748 286.486 151.929 285.492 153.913C282.498 159.912 282.714 170.818 282.714 170.932C282.714 171.086 282.652 171.233 282.543 171.342C282.492 171.397 282.431 171.44 282.362 171.469C282.293 171.499 282.219 171.513 282.145 171.513C281.997 171.513 278.593 171.513 276.931 170.374C276.089 169.816 274.859 166.105 271.592 155.234C270.123 150.373 268.325 144.374 267.71 143.36C267.186 143.292 266.036 143.019 263.578 142.45C259.172 141.414 250.008 139.251 248.528 139.74C246.114 140.549 230.45 149.007 229.278 152.263C228.037 155.769 226.238 174.119 226.215 174.302C226.204 174.428 226.151 174.547 226.064 174.64C225.978 174.733 225.863 174.794 225.737 174.814L225.703 174.939ZM223.221 136.997C221.536 136.997 217.017 137.293 215.093 140.412C213.579 142.848 212.611 144.635 212.816 145.444C212.816 145.592 212.987 145.819 213.511 146.047C215.332 146.969 217.086 148.019 218.759 149.189C218.879 149.27 218.964 149.395 218.996 149.536C219.027 149.678 219.004 149.827 218.93 149.952C218.93 149.952 217.302 152.9 219.225 157.704C220.74 161.483 223.779 168.678 225.316 172.184C225.84 167.13 227.183 154.972 228.219 152.046C229.665 148.005 246.297 139.433 248.186 138.807C249.826 138.249 256.531 139.752 263.839 141.471C265.809 141.937 267.676 142.37 267.972 142.381C268.723 142.381 269.008 142.814 272.685 155.04C274.449 160.88 276.851 168.86 277.591 169.577C278.837 170.169 280.197 170.48 281.576 170.488C281.576 168.063 281.735 159.025 284.479 153.538C285.419 151.611 285.908 149.495 285.908 147.35C285.908 145.206 285.419 143.09 284.479 141.163C284.439 141.091 284.416 141.011 284.41 140.929C284.405 140.847 284.417 140.765 284.446 140.688C284.475 140.612 284.521 140.542 284.58 140.485C284.638 140.427 284.709 140.383 284.786 140.355L286.676 139.672C285.431 138.619 284.115 137.653 282.737 136.781C282.065 136.564 282.065 135.745 282.042 133.752C282.042 131.407 282.042 127.867 280.631 125.715C279.691 124.137 278.387 122.806 276.828 121.834L275.69 125.818C275.664 125.918 275.611 126.009 275.536 126.081C275.462 126.154 275.37 126.204 275.269 126.228C275.167 126.248 275.062 126.241 274.964 126.207C274.865 126.173 274.778 126.113 274.711 126.034C274.643 125.955 267.79 117.872 264.101 116.392C262.591 115.709 261.117 114.949 259.684 114.115C256.269 112.283 251.192 109.562 249.883 110.233C249.826 110.233 249.678 110.347 249.655 110.7C249.427 114.218 250.793 115.664 250.793 115.686C250.884 115.788 250.934 115.92 250.934 116.056C250.934 116.193 250.884 116.324 250.793 116.426C250.71 116.534 250.59 116.608 250.457 116.636C250.323 116.663 250.184 116.641 250.065 116.574C249.996 116.574 242.46 112.328 236.814 113.797C231.532 115.174 227.069 118.02 226.75 119.193C228.025 120.559 233.66 125.932 233.717 126.023C233.798 126.1 233.854 126.2 233.878 126.309C233.903 126.418 233.894 126.532 233.854 126.637C233.814 126.741 233.744 126.832 233.653 126.897C233.562 126.961 233.453 126.998 233.342 127.002C227.968 127.207 219.977 127.935 219.021 128.903C218.126 129.896 217.438 131.057 216.994 132.318L224.041 135.961C224.156 136.023 224.246 136.122 224.298 136.242C224.349 136.361 224.359 136.495 224.326 136.621C224.288 136.747 224.209 136.857 224.102 136.933C223.995 137.01 223.865 137.048 223.734 137.042C223.734 137.042 223.608 136.997 223.221 136.997Z" fill="#263238"/>
<path d="M239.636 132.843C239.636 132.843 222.355 149.919 222.093 152.696C221.832 155.474 229.573 199.643 230.062 201.191C230.552 202.739 248.891 214.351 254.561 215.637C260.23 216.924 266.172 215.376 267.72 214.089C269.269 212.803 284.227 204.288 285.776 197.321C287.324 190.354 277.613 142.895 276.475 141.096C275.336 139.297 251.248 127.675 239.636 132.843Z" fill="white"/>
<path d="M259.081 216.682C257.531 216.688 255.985 216.523 254.471 216.192C249.064 214.963 230.2 203.317 229.551 201.393C228.846 199.276 221.275 155.494 221.526 152.671C221.776 149.847 236.325 135.322 239.239 132.453C239.287 132.402 239.345 132.364 239.41 132.339C250.885 127.239 275.668 138.464 276.977 140.831C278.047 142.698 287.906 190.317 286.323 197.466C285.003 203.42 274.461 210.318 269.965 213.267C269.042 213.87 268.325 214.337 268.075 214.553C266.788 215.635 263.123 216.682 259.081 216.682ZM239.968 133.318C233.331 139.852 222.835 150.838 222.664 152.75C222.436 155.312 229.984 199.071 230.633 201.006C231.43 202.509 249.029 213.79 254.721 215.077C260.413 216.363 266.014 214.804 267.392 213.654C267.688 213.403 268.359 212.959 269.384 212.288C273.767 209.419 284.035 202.703 285.253 197.193C286.745 190.499 277.057 143.302 276.032 141.412C275.076 139.943 251.431 128.412 239.968 133.318Z" fill="#263238"/>
<path d="M239.638 132.843C239.638 132.843 245.626 135.803 248.096 136.907C250.566 138.011 253.298 134.164 253.298 134.164C253.298 134.164 274.507 141.438 276.522 141.096C278.537 140.755 270.83 132.786 262.861 129.769C254.892 126.753 239.683 127.128 239.638 132.843Z" fill="#263238"/>
<path d="M276.409 141.664C273.666 141.664 257.694 136.268 253.505 134.834C252.708 135.813 250.272 138.488 247.813 137.429C245.354 136.37 239.4 133.376 239.343 133.342C239.247 133.295 239.167 133.222 239.11 133.132C239.054 133.041 239.024 132.937 239.024 132.83C239.048 132.158 239.24 131.503 239.585 130.926C239.929 130.349 240.414 129.868 240.994 129.529C245.547 126.444 256.761 126.842 263.067 129.244C270.057 131.897 277.571 138.761 277.366 140.822C277.349 141.029 277.263 141.224 277.12 141.376C276.977 141.527 276.786 141.625 276.58 141.653L276.409 141.664ZM253.3 133.593C253.364 133.582 253.429 133.582 253.493 133.593C261.36 136.291 274.167 140.423 276.261 140.503C275.783 138.943 269.636 132.898 262.715 130.257C256.704 127.981 245.821 127.605 241.7 130.428C241.327 130.643 241.005 130.935 240.753 131.285C240.502 131.634 240.328 132.033 240.242 132.454C241.552 133.092 246.242 135.414 248.337 136.336C250.01 137.076 252.162 134.743 252.89 133.786C252.941 133.727 253.003 133.678 253.074 133.645C253.145 133.612 253.222 133.594 253.3 133.593Z" fill="#263238"/>
<path d="M255.461 181.668C255.313 181.68 255.165 181.68 255.017 181.668L253.571 181.429C252.548 181.596 251.512 181.68 250.475 181.68C249.789 181.633 249.137 181.365 248.618 180.915C248.098 180.465 247.739 179.858 247.595 179.187C247.564 179.04 247.59 178.888 247.668 178.761C247.747 178.633 247.871 178.541 248.016 178.504C248.161 178.469 248.313 178.492 248.441 178.569C248.569 178.646 248.661 178.769 248.699 178.913C248.699 178.982 249.143 180.553 250.475 180.553C251.475 180.556 252.473 180.472 253.458 180.302H253.708L255.256 180.553C256.634 180.792 259.605 179.312 259.81 178.663C260.015 178.014 258.523 171.423 257.533 166.653C256.395 161.052 255.666 157.546 255.666 156.874C255.666 155.189 258.808 151.74 259.434 151.069C259.543 150.964 259.687 150.905 259.838 150.905C259.989 150.905 260.134 150.964 260.242 151.069C260.296 151.121 260.338 151.184 260.367 151.254C260.396 151.323 260.411 151.398 260.411 151.473C260.411 151.548 260.396 151.622 260.367 151.692C260.338 151.761 260.296 151.824 260.242 151.877C258.808 153.414 256.827 155.998 256.827 156.908C256.827 157.546 257.806 162.282 258.671 166.459C260.504 175.327 261.085 178.378 260.948 178.982C260.538 180.211 257.283 181.668 255.461 181.668Z" fill="#263238"/>
<path d="M261.192 179.404C260.849 179.401 260.506 179.37 260.167 179.313C260.094 179.298 260.025 179.268 259.963 179.227C259.901 179.185 259.847 179.131 259.806 179.069C259.765 179.006 259.737 178.937 259.722 178.863C259.708 178.79 259.708 178.714 259.723 178.641C259.737 178.567 259.765 178.497 259.807 178.434C259.848 178.371 259.902 178.317 259.965 178.276C260.027 178.234 260.098 178.206 260.172 178.192C260.246 178.179 260.322 178.18 260.395 178.197C261.035 178.339 261.703 178.279 262.308 178.026C262.44 177.931 262.53 177.788 262.558 177.628L262.808 176.08C262.836 175.931 262.921 175.8 263.044 175.712C263.167 175.625 263.32 175.59 263.469 175.613C263.542 175.624 263.613 175.65 263.677 175.688C263.74 175.727 263.796 175.778 263.839 175.839C263.883 175.899 263.914 175.968 263.93 176.041C263.947 176.113 263.949 176.188 263.936 176.262L263.674 177.81C263.636 178.038 263.553 178.256 263.43 178.452C263.307 178.647 263.146 178.816 262.956 178.948C262.426 179.27 261.812 179.428 261.192 179.404Z" fill="#263238"/>
<path d="M253.561 181.381C253.446 181.382 253.334 181.346 253.242 181.279C252.611 180.791 252.152 180.117 251.929 179.352C251.706 178.587 251.731 177.771 252.001 177.021C252.018 176.942 252.051 176.868 252.099 176.803C252.146 176.738 252.207 176.684 252.277 176.645C252.347 176.605 252.424 176.58 252.504 176.573C252.584 176.565 252.665 176.575 252.741 176.601C252.817 176.627 252.887 176.668 252.946 176.723C253.005 176.778 253.051 176.845 253.083 176.919C253.114 176.993 253.129 177.073 253.127 177.153C253.125 177.234 253.106 177.313 253.071 177.385C252.879 177.905 252.856 178.472 253.005 179.006C253.154 179.539 253.468 180.012 253.902 180.357C253.998 180.428 254.068 180.528 254.104 180.642C254.14 180.756 254.138 180.879 254.101 180.992C254.063 181.105 253.99 181.204 253.893 181.274C253.797 181.344 253.68 181.381 253.561 181.381Z" fill="#263238"/>
<path d="M248.93 197.112C248.789 197.112 248.652 197.064 248.543 196.975C248.438 196.867 248.379 196.722 248.379 196.571C248.379 196.42 248.438 196.275 248.543 196.167C248.634 196.065 257.434 186.366 267.497 190.338C267.567 190.366 267.63 190.407 267.684 190.459C267.737 190.512 267.78 190.574 267.81 190.642C267.839 190.711 267.855 190.785 267.856 190.86C267.857 190.935 267.843 191.009 267.816 191.078C267.788 191.148 267.747 191.211 267.695 191.265C267.643 191.319 267.581 191.361 267.512 191.391C267.443 191.421 267.369 191.436 267.294 191.437C267.22 191.439 267.145 191.425 267.076 191.397C257.752 187.72 249.476 196.827 249.396 196.93C249.338 196.994 249.265 197.043 249.184 197.075C249.103 197.106 249.016 197.119 248.93 197.112Z" fill="#263238"/>
<path d="M231.126 161.57C230.989 161.572 230.854 161.544 230.728 161.491C230.448 161.383 230.222 161.17 230.099 160.898C229.975 160.625 229.964 160.314 230.068 160.033C231.281 157.105 233.313 154.587 235.919 152.782C240.268 149.879 247.804 153.317 248.123 153.465C248.259 153.529 248.381 153.618 248.482 153.729C248.584 153.84 248.662 153.969 248.713 154.111C248.765 154.252 248.788 154.401 248.781 154.551C248.774 154.701 248.738 154.849 248.675 154.985C248.611 155.121 248.521 155.243 248.411 155.344C248.3 155.446 248.17 155.524 248.029 155.576C247.888 155.627 247.738 155.65 247.588 155.643C247.438 155.636 247.291 155.6 247.155 155.537C245.311 154.672 239.903 152.85 237.183 154.672C234.979 156.22 233.252 158.353 232.196 160.83C232.115 161.048 231.969 161.236 231.777 161.368C231.586 161.501 231.359 161.571 231.126 161.57Z" fill="#263238"/>
<path d="M276.275 156.679C276.067 156.68 275.863 156.625 275.684 156.519C275.506 156.412 275.36 156.259 275.262 156.075C273.971 153.878 272.002 152.16 269.65 151.18C268.635 150.812 267.541 150.718 266.478 150.905C265.415 151.093 264.42 151.557 263.593 152.25C263.482 152.352 263.352 152.431 263.211 152.482C263.069 152.533 262.919 152.555 262.768 152.548C262.618 152.541 262.471 152.503 262.335 152.439C262.199 152.374 262.077 152.283 261.977 152.171C261.775 151.947 261.67 151.653 261.685 151.352C261.7 151.051 261.833 150.768 262.056 150.566C263.194 149.591 264.572 148.937 266.046 148.671C267.521 148.405 269.04 148.536 270.446 149.052C273.319 150.221 275.721 152.311 277.277 154.994C277.349 155.126 277.393 155.271 277.409 155.421C277.424 155.57 277.41 155.721 277.366 155.865C277.323 156.009 277.251 156.143 277.156 156.259C277.06 156.376 276.943 156.472 276.81 156.542C276.646 156.631 276.462 156.678 276.275 156.679Z" fill="#263238"/>
<path d="M242.608 168.174C243.677 168.174 244.543 166.961 244.543 165.465C244.543 163.968 243.677 162.755 242.608 162.755C241.539 162.755 240.673 163.968 240.673 165.465C240.673 166.961 241.539 168.174 242.608 168.174Z" fill="#263238"/>
<path d="M267.635 161.597C267.635 163.088 266.759 164.306 265.7 164.306C264.641 164.306 263.765 163.088 263.765 161.597C263.765 160.105 264.63 158.887 265.7 158.887C266.77 158.887 267.635 160.105 267.635 161.597Z" fill="#263238"/>
<path d="M225.25 171.522C225.25 171.522 220.355 164.566 218.032 169.974C215.71 175.381 218.032 179.775 220.309 183.395C222.586 187.015 227.527 188.814 227.527 188.814L225.25 171.522Z" fill="white"/>
<path d="M227.528 189.385C227.464 189.397 227.398 189.397 227.334 189.385C227.13 189.317 222.223 187.472 219.832 183.693C217.226 179.64 215.142 175.155 217.465 169.748C217.64 169.143 217.98 168.598 218.446 168.174C218.912 167.75 219.487 167.464 220.106 167.346C222.69 167.084 225.376 170.761 225.672 171.194C225.729 171.266 225.765 171.353 225.775 171.444L228.052 188.725C228.062 188.823 228.048 188.923 228.01 189.014C227.972 189.106 227.912 189.186 227.835 189.248C227.749 189.323 227.642 189.371 227.528 189.385ZM220.379 168.484H220.219C219.536 168.553 218.967 169.133 218.512 170.192C216.292 175.36 218.512 179.549 220.789 183.078C222.35 185.18 224.434 186.836 226.834 187.882L224.659 171.729C223.908 170.727 221.927 168.484 220.367 168.484H220.379Z" fill="#263238"/>
<path d="M282.721 163.018C282.721 163.018 283.234 158.112 285.305 158.624C287.377 159.136 291.236 163.018 288.914 168.425C286.592 173.833 284.269 179.525 284.269 179.525L282.175 168.949L282.721 163.018Z" fill="white"/>
<path d="M284.267 180.097C284.145 180.082 284.031 180.029 283.941 179.945C283.851 179.861 283.79 179.751 283.766 179.63L281.706 169.055C281.7 169.002 281.7 168.948 281.706 168.895L282.218 162.964C282.218 162.6 282.639 159.367 284.085 158.354C284.289 158.209 284.522 158.111 284.768 158.066C285.013 158.021 285.266 158.03 285.508 158.092C286.374 158.403 287.169 158.883 287.848 159.504C288.526 160.126 289.073 160.876 289.458 161.712C289.984 162.796 290.257 163.985 290.257 165.19C290.257 166.395 289.984 167.584 289.458 168.668C287.181 174.018 284.836 179.699 284.814 179.756C284.769 179.862 284.693 179.952 284.595 180.013C284.497 180.074 284.382 180.104 284.267 180.097ZM282.776 168.918L284.461 177.558C285.337 175.452 286.863 171.753 288.388 168.212C288.837 167.276 289.069 166.251 289.069 165.213C289.069 164.174 288.837 163.149 288.388 162.213C287.758 160.82 286.605 159.732 285.178 159.185C285.093 159.159 285.004 159.154 284.916 159.17C284.829 159.186 284.747 159.222 284.677 159.276C283.914 159.811 283.425 161.883 283.3 163.067L282.776 168.918Z" fill="#263238"/>
<path d="M504.83 478.536H27.6708C27.5198 478.536 27.375 478.476 27.2683 478.369C27.1615 478.262 27.1016 478.118 27.1016 477.967C27.1016 477.816 27.1615 477.671 27.2683 477.564C27.375 477.457 27.5198 477.397 27.6708 477.397H504.83C504.981 477.397 505.126 477.457 505.232 477.564C505.339 477.671 505.399 477.816 505.399 477.967C505.396 478.117 505.335 478.26 505.229 478.366C505.123 478.472 504.98 478.533 504.83 478.536Z" fill="#263238"/>
</svg>
